<mxfile host="drawio-plugin" modified="2024-01-05T09:24:39.723Z" agent="5.0 (Windows NT 10.0; Win64; x64) AppleWebKit/537.36 (KHTML, like Gecko) Chrome/111.0.0.0 Safari/537.36" etag="cAzyByHJIGJDxQ833Gaw" version="20.5.3" type="embed" pages="3"><diagram id="EKcr0HdU757LEizDHPSV" name="subscription flow"><mxGraphModel dx="1037" dy="523" grid="1" gridSize="10" guides="1" tooltips="1" connect="1" arrows="1" fold="1" page="1" pageScale="1" pageWidth="850" pageHeight="1100" math="0" shadow="0"><root><mxCell id="0"/><mxCell id="1" parent="0"/><mxCell id="25" value="数据提取" style="rounded=0;whiteSpace=wrap;html=1;" vertex="1" parent="1"><mxGeometry x="80" y="200" width="120" height="60" as="geometry"/></mxCell><mxCell id="26" value="清洗数据" style="rounded=0;whiteSpace=wrap;html=1;" vertex="1" parent="1"><mxGeometry x="80" y="320" width="120" height="60" as="geometry"/></mxCell><mxCell id="27" value="标注" style="rounded=0;whiteSpace=wrap;html=1;" vertex="1" parent="1"><mxGeometry x="80" y="440" width="120" height="60" as="geometry"/></mxCell><mxCell id="28" value="模型训练" style="rounded=0;whiteSpace=wrap;html=1;" vertex="1" parent="1"><mxGeometry x="280" y="440" width="120" height="60" as="geometry"/></mxCell><mxCell id="29" value="储存" style="rounded=0;whiteSpace=wrap;html=1;" vertex="1" parent="1"><mxGeometry x="280" y="320" width="120" height="60" as="geometry"/></mxCell><mxCell id="30" value="验证" style="rounded=0;whiteSpace=wrap;html=1;" vertex="1" parent="1"><mxGeometry x="280" y="200" width="120" height="60" as="geometry"/></mxCell><mxCell id="31" value="储存封装" style="rounded=0;whiteSpace=wrap;html=1;" vertex="1" parent="1"><mxGeometry x="480" y="200" width="120" height="60" as="geometry"/></mxCell><mxCell id="32" value="" style="endArrow=classic;html=1;rounded=0;exitX=0.5;exitY=1;exitDx=0;exitDy=0;entryX=0.5;entryY=0;entryDx=0;entryDy=0;" edge="1" parent="1" source="25" target="26"><mxGeometry width="50" height="50" relative="1" as="geometry"><mxPoint x="370" y="370" as="sourcePoint"/><mxPoint x="420" y="320" as="targetPoint"/></mxGeometry></mxCell><mxCell id="33" value="" style="endArrow=classic;html=1;rounded=0;exitX=0.5;exitY=1;exitDx=0;exitDy=0;" edge="1" parent="1" source="26" target="27"><mxGeometry width="50" height="50" relative="1" as="geometry"><mxPoint x="370" y="370" as="sourcePoint"/><mxPoint x="420" y="320" as="targetPoint"/></mxGeometry></mxCell><mxCell id="34" value="" style="endArrow=classic;html=1;rounded=0;exitX=1;exitY=0.5;exitDx=0;exitDy=0;entryX=0;entryY=0.5;entryDx=0;entryDy=0;" edge="1" parent="1" source="27" target="28"><mxGeometry width="50" height="50" relative="1" as="geometry"><mxPoint x="370" y="370" as="sourcePoint"/><mxPoint x="420" y="320" as="targetPoint"/></mxGeometry></mxCell><mxCell id="36" value="" style="endArrow=classic;html=1;rounded=0;exitX=0.5;exitY=0;exitDx=0;exitDy=0;entryX=0.5;entryY=1;entryDx=0;entryDy=0;" edge="1" parent="1" source="28" target="29"><mxGeometry width="50" height="50" relative="1" as="geometry"><mxPoint x="370" y="370" as="sourcePoint"/><mxPoint x="420" y="320" as="targetPoint"/></mxGeometry></mxCell><mxCell id="37" value="" style="endArrow=classic;html=1;rounded=0;exitX=0.5;exitY=0;exitDx=0;exitDy=0;entryX=0.5;entryY=1;entryDx=0;entryDy=0;" edge="1" parent="1" source="29" target="30"><mxGeometry width="50" height="50" relative="1" as="geometry"><mxPoint x="370" y="370" as="sourcePoint"/><mxPoint x="420" y="320" as="targetPoint"/></mxGeometry></mxCell><mxCell id="38" value="" style="endArrow=classic;html=1;rounded=0;exitX=1;exitY=0.5;exitDx=0;exitDy=0;entryX=0;entryY=0.5;entryDx=0;entryDy=0;" edge="1" parent="1" source="30" target="31"><mxGeometry width="50" height="50" relative="1" as="geometry"><mxPoint x="370" y="370" as="sourcePoint"/><mxPoint x="420" y="320" as="targetPoint"/></mxGeometry></mxCell></root></mxGraphModel></diagram><diagram id="YXcxMA2WIJ0A6YH6q6xw" name="usage flow">&#xa;        <mxGraphModel dx="1413" dy="806" grid="1" gridSize="10" guides="1" tooltips="1" connect="1" arrows="1" fold="1" page="1" pageScale="1" pageWidth="850" pageHeight="1100" math="0" shadow="0">&#xa;            <root>&#xa;                <mxCell id="0"/>&#xa;                <mxCell id="1" parent="0"/>&#xa;            </root>&#xa;        </mxGraphModel>&#xa;    </diagram><diagram id="sXDJLPaH5kadsJmUEnDq" name="data structure">&#xa;        <mxGraphModel dx="1413" dy="806" grid="1" gridSize="10" guides="1" tooltips="1" connect="1" arrows="1" fold="1" page="1" pageScale="1" pageWidth="850" pageHeight="1100" math="0" shadow="0">&#xa;            <root>&#xa;                <mxCell id="0"/>&#xa;                <mxCell id="1" parent="0"/>&#xa;            </root>&#xa;        </mxGraphModel>&#xa;    </diagram></mxfile>